<svg xmlns="http://www.w3.org/2000/svg" width="30" height="31.438" viewBox="0 0 30 31.438">
  <path id="icon__Change_batch" data-name="icon_ Change batch" d="M28.594,14.246a1.442,1.442,0,0,0-1.406,1.474c0,7.054-5.456,12.772-12.188,12.772a11.994,11.994,0,0,1-9.941-5.4H7.5a1.475,1.475,0,0,0,0-2.947H1.407A1.442,1.442,0,0,0,0,21.614v5.893a1.441,1.441,0,0,0,1.406,1.474,1.441,1.441,0,0,0,1.406-1.474V24.829A14.732,14.732,0,0,0,15,31.438c8.284,0,15-7.038,15-15.718A1.442,1.442,0,0,0,28.594,14.246Zm0-11.789A1.442,1.442,0,0,0,27.188,3.93V6.586A14.757,14.757,0,0,0,15,0C6.715,0,0,7.037,0,15.719a1.441,1.441,0,0,0,1.406,1.474,1.441,1.441,0,0,0,1.406-1.474C2.812,8.666,8.269,2.948,15,2.948a11.973,11.973,0,0,1,9.922,5.4H22.5a1.475,1.475,0,0,0,0,2.947h6.094A1.442,1.442,0,0,0,30,9.825v-5.9a1.441,1.441,0,0,0-1.406-1.472Z" fill="#adadad"/>
</svg>
