<svg xmlns="http://www.w3.org/2000/svg" width="50" height="50" viewBox="0 0 50 50">
  <g id="icon__No_code" data-name="icon_ No code" transform="translate(-466 -215)">
    <rect id="矩形_957" data-name="矩形 957" width="50" height="50" transform="translate(466 215)" fill="rgba(255,255,255,0)"/>
    <g id="icon__No_code-2" data-name="icon_ No code" transform="translate(393.248 87.928)">
      <path id="路径_44" data-name="路径 44" d="M324.054,338.926a1.62,1.62,0,0,0,1.092-.431,1.5,1.5,0,0,0,.431-1.092v-4.626h3.074V337.4a1.523,1.523,0,1,0,3.046,0v-12.3a1.523,1.523,0,1,0-3.046,0v4.626h-3.046v-4.626a1.523,1.523,0,1,0-3.046,0v12.3a1.62,1.62,0,0,0,.431,1.092A1.548,1.548,0,0,0,324.054,338.926Zm12.3,0c4.884,0,7.671-2.787,7.671-7.671,0-4.741-2.931-7.671-7.671-7.671a1.62,1.62,0,0,0-1.092.431,1.5,1.5,0,0,0-.431,1.092v12.3a1.62,1.62,0,0,0,.431,1.092A1.738,1.738,0,0,0,336.351,338.926ZM337.9,326.8c2.011.46,3.074,1.954,3.074,4.453,0,2.615-.977,4.022-3.074,4.453Z" transform="translate(-235.514 -182.785)" fill="#c1c1c3"/>
      <path id="路径_45" data-name="路径 45" d="M117.905,131.072H77.625a2.877,2.877,0,0,0-2.873,2.873v10.929a1.423,1.423,0,0,0,2.846,0V133.945h40.253v28.76H77.625V149.789a1.423,1.423,0,0,0-2.846,0v12.916a2.877,2.877,0,0,0,2.873,2.873h10.07V169.9h-4.35a1.39,1.39,0,0,0-1.235.725,1.54,1.54,0,0,0,0,1.45,1.48,1.48,0,0,0,1.235.725h28.76a1.39,1.39,0,0,0,1.235-.725,1.54,1.54,0,0,0,0-1.45,1.48,1.48,0,0,0-1.235-.725h-4.323v-4.323h10.07a2.877,2.877,0,0,0,2.873-2.873v-28.76A2.837,2.837,0,0,0,117.905,131.072ZM104.962,169.9H90.6v-4.323h14.393V169.9Z" fill="#c1c1c3"/>
    </g>
  </g>
</svg>
