<svg xmlns="http://www.w3.org/2000/svg" width="50" height="50" viewBox="0 0 50 50">
  <g id="icon_Candid_" data-name="icon_Candid " transform="translate(-361 -215)">
    <rect id="矩形_956" data-name="矩形 956" width="50" height="50" transform="translate(361 215)" fill="rgba(255,255,255,0)"/>
    <g id="icon_Candid_2" data-name="icon_Candid " transform="translate(301.608 98.192)">
      <path id="路径_41" data-name="路径 41" d="M100.956,128.326H95.277L92.816,122.4a4.176,4.176,0,0,0-3.894-2.6H77.835a4.217,4.217,0,0,0-3.894,2.6l-2.461,5.922H65.8a6.405,6.405,0,0,0-6.409,6.409V154.72a6.405,6.405,0,0,0,6.409,6.409h35.182a6.405,6.405,0,0,0,6.409-6.409V134.735A6.428,6.428,0,0,0,100.956,128.326ZM77.835,122.81H88.9a1.237,1.237,0,0,1,1.136.757l2.839,6.842a1.5,1.5,0,0,0,1.379.919h6.679a3.41,3.41,0,0,1,3.407,3.407V154.72a3.41,3.41,0,0,1-3.407,3.407H65.8a3.41,3.41,0,0,1-3.407-3.407V134.735a3.41,3.41,0,0,1,3.407-3.407H72.48a1.47,1.47,0,0,0,1.379-.919l2.839-6.842A1.237,1.237,0,0,1,77.835,122.81Z" transform="translate(0 0)" fill="#c1c1c3"/>
      <path id="路径_42" data-name="路径 42" d="M309.155,372.127c7.309,0,13.219-6.651,13.219-14.8s-5.941-14.8-13.219-14.8c-7.309,0-13.219,6.651-13.219,14.8S301.877,372.127,309.155,372.127Zm-9.766-14.8c0-6.024,4.385-10.969,9.8-10.969,5.381,0,9.8,4.91,9.8,10.969,0,6.024-4.385,10.969-9.8,10.969C303.774,368.262,299.388,363.352,299.388,357.327Z" transform="translate(-225.774 -216.175)" fill="#c1c1c3"/>
      <path id="路径_43" data-name="路径 43" d="M168.224,393.793a1.989,1.989,0,0,0,1.079.348,1.893,1.893,0,0,0,1.88-2.3,1.865,1.865,0,0,0-.8-1.219,6.5,6.5,0,0,1-2.855-5.363,1.915,1.915,0,0,0-3.83,0A10.335,10.335,0,0,0,168.224,393.793Zm-11.909-20.545H150.4a1.915,1.915,0,1,0,0,3.83h5.92a1.91,1.91,0,0,0,1.915-1.915A1.888,1.888,0,0,0,156.315,373.248Z" transform="translate(-83.029 -242.544)" fill="#c1c1c3"/>
    </g>
  </g>
</svg>
