<svg xmlns="http://www.w3.org/2000/svg" width="64" height="64" viewBox="0 0 64 64">
  <g id="icon_Update_time_" data-name="icon_Update time " transform="translate(-30 -942)">
    <rect id="矩形_964" data-name="矩形 964" width="64" height="64" transform="translate(30 942)" fill="rgba(255,255,255,0)"/>
    <path id="时间" d="M92.277,64A28.28,28.28,0,1,0,120.56,92.277,28.275,28.275,0,0,0,92.277,64ZM103.6,103.011a2.5,2.5,0,0,1-3.509.353l-9.781-8a2.483,2.483,0,0,1-.915-1.925V81.751a2.493,2.493,0,1,1,4.985,0v10.5l8.872,7.257A2.492,2.492,0,0,1,103.6,103.011Z" transform="translate(-30 882)" fill="#c1c1c3"/>
  </g>
</svg>
