<svg xmlns="http://www.w3.org/2000/svg" width="37" height="37" viewBox="0 0 37 37">
  <path id="icon__Mute" data-name="icon_ Mute" d="M91.965,95.08l-2.8-2.836A25.3,25.3,0,0,0,93.054,78.75a23.532,23.532,0,0,0-3.884-13l2.8-2.836A27.26,27.26,0,0,1,97,78.741C97,84.079,95.108,91.282,91.965,95.08ZM80.255,97a2.929,2.929,0,0,1-1.748-.581l-10.044-7.4h-5.5A2.98,2.98,0,0,1,60,86.035V71.951a2.965,2.965,0,0,1,2.955-2.984h5.4l10.028-8.28A2.9,2.9,0,0,1,80.255,60a2.98,2.98,0,0,1,2.959,2.988v31.02A2.981,2.981,0,0,1,80.255,97Zm0,0a2.929,2.929,0,0,1-1.748-.581l-10.044-7.4h-5.5A2.98,2.98,0,0,1,60,86.035V71.951a2.965,2.965,0,0,1,2.955-2.984h5.4l10.028-8.28A2.9,2.9,0,0,1,80.255,60a2.98,2.98,0,0,1,2.959,2.988v31.02A2.981,2.981,0,0,1,80.255,97Z" transform="translate(-59.999 -60)" fill="#fff"/>
</svg>
