<svg xmlns="http://www.w3.org/2000/svg" width="50" height="50" viewBox="0 0 50 50">
  <g id="icon_sex" transform="translate(-570 -215)">
    <rect id="矩形_958" data-name="矩形 958" width="50" height="50" transform="translate(570 215)" fill="rgba(255,255,255,0)"/>
    <g id="icon_sex-2" data-name="icon_sex" transform="translate(413.079 -62.879)">
      <path id="路径_53" data-name="路径 53" d="M156.928,304.541Zm49.969-.146c.006.027.006.053.012.08A.421.421,0,0,0,206.9,304.395Zm-.025-.126c.006.027.012.06.019.086C206.885,304.329,206.879,304.3,206.872,304.269Zm-.093-.239c.012.027.025.053.037.086C206.8,304.09,206.792,304.063,206.78,304.03Zm-49.858.643v.02C156.928,304.687,156.922,304.68,156.922,304.674Zm49.907-.524c.012.027.019.06.031.093A.4.4,0,0,0,206.829,304.15Zm.08.643c0,.02-.006.033-.006.053A.177.177,0,0,0,206.91,304.793Zm-.049.245-.019.06Zm-49.728-1.128c.012-.02.031-.04.043-.06s.019-.027.031-.04a.15.15,0,0,1,.043-.046c.012-.013.025-.033.037-.046l.056-.06c.012-.007.019-.02.031-.027a1.183,1.183,0,0,1,.322-.206c.006,0,.012-.007.019-.007a.52.52,0,0,1,.093-.033c.012-.007.031-.007.043-.013l.074-.02c.025-.007.043-.007.068-.013s.031-.007.049-.007a.436.436,0,0,1,.093-.007h2.339a59.582,59.582,0,0,1,4.065-5.512c3.941-4.69,7.56-7.17,10.48-7.17h.049c2.227.02,4.114,1.486,5.76,4.477a1.2,1.2,0,0,0,2.153-.04c1.51-2.978,3.285-4.464,5.426-4.544,2.9-.106,6.589,2.368,10.684,7.15a63.358,63.358,0,0,1,5.123,6.991c.247-.411.371-.657.371-.663a1.2,1.2,0,0,1,1.677-.537,1.231,1.231,0,0,1,.489.517.639.639,0,0,1-.031-.066,64.4,64.4,0,0,0-5.784-8.013c-4.547-5.34-8.7-8.039-12.342-8.039-.087,0-.173,0-.26.007-2.524.093-4.7,1.473-6.471,4.126-1.9-2.647-4.164-3.993-6.768-4.02-3.718-.046-7.894,2.673-12.416,8.066a60.926,60.926,0,0,0-5.568,7.887c-.006.007-.006.013-.012.02.006-.013.012-.02.019-.033Zm49.759,1.008c-.006.02-.006.033-.012.053A.218.218,0,0,0,206.891,304.919Zm.025-.391a.291.291,0,0,0,.006.073A.291.291,0,0,1,206.916,304.528Zm.006.133v.06A.193.193,0,0,1,206.922,304.66Zm-49.988.146c0,.013.006.027.006.04v-.013C156.934,304.826,156.934,304.82,156.934,304.806Zm.025-.464c.006-.02.006-.033.012-.053A.132.132,0,0,0,156.959,304.342Zm.08-.259.019-.04A.111.111,0,0,1,157.039,304.083Zm-.105.391c0-.02.006-.04.006-.06C156.94,304.435,156.934,304.455,156.934,304.475Zm49.833.809c0,.007-.006.007,0,0S206.767,305.29,206.767,305.284Zm-49.722-.066a.073.073,0,0,1-.012-.033A.117.117,0,0,0,157.046,305.217Zm-.056-1.008a.1.1,0,0,0,.012-.046A.1.1,0,0,1,156.99,304.209Zm49.8,1.028a.67.67,0,0,0,.031-.073A.67.67,0,0,1,206.786,305.237ZM157,305.091c-.006-.013-.006-.02-.012-.033A.117.117,0,0,1,157,305.091Zm-.031-.119c0-.013-.006-.02-.006-.033A.064.064,0,0,0,156.965,304.972Zm.049.172c0-.007,0-.007-.006-.013S157.015,305.138,157.015,305.145Zm49.9-.425a.291.291,0,0,1-.006.073A.318.318,0,0,0,206.916,304.72Zm-.037.252c-.006.026-.012.046-.019.073A.431.431,0,0,0,206.879,304.972Zm-.105.3a.073.073,0,0,0,.012-.033.17.17,0,0,1-.025.046Z" fill="#c1c1c3"/>
      <path id="路径_54" data-name="路径 54" d="M206.346,494.848a1.167,1.167,0,0,1-.662.206,1.22,1.22,0,0,1-1.046-.617c-.006-.007-.155-.252-.421-.677a28.885,28.885,0,0,1-5.1,6.248,25.115,25.115,0,0,1-34.41,0,29.493,29.493,0,0,1-4.263-4.955h-2.314a.237.237,0,0,1-.068-.007c-.019,0-.037-.007-.056-.007a.206.206,0,0,1-.062-.013c-.019-.007-.043-.007-.062-.013s-.037-.007-.056-.013l-.068-.02-.043-.02c-.025-.013-.049-.02-.074-.033l-.037-.02a.456.456,0,0,1-.074-.046c-.006-.007-.012-.007-.019-.013s-.006-.007-.012-.013a.474.474,0,0,1-.068-.053c-.012-.007-.025-.02-.037-.026a.41.41,0,0,1-.056-.053l-.037-.04a.175.175,0,0,1-.043-.053.283.283,0,0,1-.037-.046.175.175,0,0,0-.043-.053c-.012-.013-.019-.033-.031-.046s-.025-.046-.037-.066-.019-.026-.025-.04-.006-.007-.006-.013A29.681,29.681,0,0,0,163,501.919a28.313,28.313,0,0,0,7.715,5.18,27.7,27.7,0,0,0,22.352,0,28.554,28.554,0,0,0,7.733-5.18,29.489,29.489,0,0,0,5.951-7.568A1.081,1.081,0,0,1,206.346,494.848Zm.557-.922c-.006.027-.006.053-.012.073A.254.254,0,0,0,206.9,493.926Zm.012-.239v.06A.1.1,0,0,0,206.916,493.687Zm-.074.5-.019.06Zm-49.9-.245c0,.013.006.033.006.046C156.947,493.972,156.94,493.952,156.94,493.939Zm49.919-.617c.006.013.006.02.012.033C206.866,493.349,206.866,493.336,206.86,493.322Zm-49.8-.206s0-.007.006-.007S157.064,493.11,157.064,493.117Zm-.136.7Zm49.833-.73.019.04Zm-49.783,1.028a.09.09,0,0,1-.006-.04A.09.09,0,0,0,156.978,494.112Zm49.839-.909a.073.073,0,0,1,.012.033A.073.073,0,0,0,206.817,493.2Zm-49.895.484Zm49.969-.239c0,.013.006.026.006.04C206.9,493.468,206.891,493.462,206.891,493.448Zm.019.119c0,.013.006.033.006.046C206.916,493.6,206.909,493.581,206.909,493.568ZM158.165,492.4Z" transform="translate(0 -191.273)" fill="#c1c1c3"/>
      <path id="路径_55" data-name="路径 55" d="M157.275,494.529a.279.279,0,0,1-.033-.046A.279.279,0,0,0,157.275,494.529Zm.929-2.122c.033,0,.066-.007.1-.007A.505.505,0,0,1,158.2,492.407Zm-.842,2.222a.291.291,0,0,1-.04-.046A.291.291,0,0,0,157.361,494.629Zm.086.086-.04-.04A.113.113,0,0,0,157.448,494.715Zm.623-2.288c.027-.007.046-.007.073-.013C158.124,492.42,158.1,492.42,158.071,492.427Zm-1.048,1.5Zm.8-1.426c.007,0,.013-.007.02-.007A.024.024,0,0,1,157.826,492.5Zm.126-.04c.013-.007.033-.007.046-.013A.436.436,0,0,0,157.952,492.46Zm-.743.564c.007-.007.013-.02.02-.027A.092.092,0,0,0,157.209,493.024Zm.066-.093c.013-.013.02-.026.033-.04A.177.177,0,0,0,157.275,492.931Zm.073-.093c.013-.013.027-.033.04-.046A.292.292,0,0,1,157.348,492.838Zm-.146,1.585c-.007-.013-.02-.027-.027-.04C157.182,494.4,157.2,494.41,157.2,494.423Zm.962.623a.235.235,0,0,1-.066-.013C158.117,495.04,158.144,495.04,158.164,495.047Zm.133.007a.271.271,0,0,1-.073-.007A.3.3,0,0,0,158.3,495.054Zm-.842-2.315c.013-.007.02-.02.033-.026A.066.066,0,0,0,157.454,492.739Zm-.444.915Zm0,.126Zm1.021,1.24c-.02-.007-.04-.007-.06-.013C157.991,495.014,158.011,495.014,158.031,495.02Zm-.133-.04-.046-.02A.088.088,0,0,0,157.9,494.981Zm-.352-.186c-.013-.007-.027-.02-.04-.027A.14.14,0,0,0,157.547,494.795Zm.086.066c.007.007.013.007.02.013a.145.145,0,0,1-.033-.02C157.627,494.855,157.633,494.855,157.633,494.861Zm.139.073-.04-.02A.221.221,0,0,1,157.773,494.934Z" transform="translate(-0.081 -190.218)" fill="#c1c1c3"/>
      <path id="路径_56" data-name="路径 56" d="M831.658,494.12l.02-.06c.007-.027.013-.046.02-.073s.007-.033.013-.053.007-.053.013-.073.007-.033.007-.053.007-.047.007-.073v-.119a.268.268,0,0,0-.007-.073c0-.013-.007-.033-.007-.047s-.007-.053-.013-.08-.007-.026-.007-.04c-.007-.033-.013-.06-.02-.086s-.007-.02-.013-.033a.533.533,0,0,0-.033-.093c-.007-.013-.007-.02-.013-.033s-.026-.053-.04-.086l-.02-.04a1.311,1.311,0,0,0-.524-.517,1.332,1.332,0,0,0-1.8.537c-.007.007-.139.252-.4.663.285.424.444.67.451.677a1.327,1.327,0,0,0,1.831.411,1.256,1.256,0,0,0,.444-.471V494.3a.164.164,0,0,1,.027-.046.653.653,0,0,0,.033-.073A.237.237,0,0,0,831.658,494.12Z" transform="translate(-624.822 -190.153)" fill="#c1c1c3"/>
      <path id="路径_57" data-name="路径 57" d="M191.2,492.8a1.38,1.38,0,0,1,.4.982v.02a1.4,1.4,0,0,1-.4.982c-.092.093-.19.186-.281.272.74.007,1.486.007,2.22.007h.587a1.331,1.331,0,0,0,0-2.653c-.972,0-1.957,0-2.935-.007.116.106.232.219.349.332A.264.264,0,0,0,191.2,492.8Zm6.6-.391a1.332,1.332,0,0,0,.012,2.653h.012c.171,0,.349-.007.52-.013a1.29,1.29,0,0,0,1.186-1.366,1.275,1.275,0,0,0-1.26-1.287C198.12,492.4,197.955,492.408,197.8,492.408ZM157,494.172c.006.013.006.027.012.04a.042.042,0,0,1-.006-.027C157,494.179,157,494.179,157,494.172Zm-.073-.451Zm15.178.982a1.4,1.4,0,0,1-.324-.9v-.02a1.428,1.428,0,0,1,.33-.909l.073-.08c.073-.08.2-.219.379-.4H160.432c-.355.544-.642,1.008-.85,1.353.2.332.465.776.819,1.3h12.023C172.228,494.848,172.118,494.722,172.1,494.7Zm-15.166-1.148c0,.02-.006.04-.006.06v-.007C156.928,493.595,156.934,493.575,156.934,493.555Zm-.006.292c0,.013.006.027.006.04v-.007C156.934,493.867,156.928,493.86,156.928,493.847Zm.049.259c.006.013.006.027.012.04,0-.007,0-.013-.006-.013S156.977,494.112,156.977,494.106Zm-.031-.126c0,.013.006.027.006.04v-.013C156.952,494,156.946,493.986,156.946,493.98Zm.037-.67a.026.026,0,0,1,.006-.02c-.006.026-.018.053-.024.08v-.007A.112.112,0,0,0,156.983,493.31Zm.049-.126a.024.024,0,0,1,.006-.013.423.423,0,0,0-.031.08v-.007C157.014,493.223,157.026,493.2,157.032,493.184Zm-.08.252v-.013a.3.3,0,0,0-.012.073v-.007A.219.219,0,0,0,156.952,493.436Zm.141-.391c-.012.02-.018.033-.031.053.006-.013.018-.027.024-.04S157.093,493.051,157.093,493.044Zm-.031.066a.026.026,0,0,0-.006.02C157.056,493.117,157.063,493.117,157.063,493.111Zm-.1.942Zm.049.172a.119.119,0,0,1,.012.033.024.024,0,0,0-.006-.013A.026.026,0,0,0,157.014,494.225Zm.037.086c0-.007-.006-.013-.006-.02.012.02.018.046.031.066a.022.022,0,0,1-.006-.013A.145.145,0,0,1,157.05,494.311Zm.93-1.9c.018,0,.031-.007.049-.007A.142.142,0,0,1,157.98,492.408Z" transform="translate(0 -190.212)" fill="#c1c1c3"/>
      <path id="路径_58" data-name="路径 58" d="M157.035,494.251a.023.023,0,0,0,.007.013c.007.013.013.02.013.033s.007.013.007.02A.687.687,0,0,1,157.035,494.251Zm-.086-.756h0c-.007.026-.007.046-.013.066v.007A.238.238,0,0,1,156.948,493.495Zm-.02.126Zm.2-.6a.144.144,0,0,0-.02.033c0,.007-.007.007-.007.013A.384.384,0,0,0,157.127,493.024Zm-.113.226c-.007.02-.013.033-.02.053s-.007.013-.007.02C157,493.289,157.008,493.269,157.015,493.249Zm.206-.358a.154.154,0,0,1,.046-.046Zm.551-.4a.582.582,0,0,1,.1-.033A.349.349,0,0,0,157.771,492.493Zm-.623.5c.013-.02.033-.04.046-.06A.144.144,0,0,0,157.147,493Zm.769-.551.08-.02Zm-.849.683h0l-.02.04a.023.023,0,0,1-.007.013A.393.393,0,0,1,157.068,493.13Zm.677-.63a1.4,1.4,0,0,0-.345.206,1.261,1.261,0,0,1,.219-.146C157.665,492.54,157.7,492.52,157.744,492.5Zm-.438.292.06-.06A.5.5,0,0,1,157.307,492.792Zm-.371,1.094v.007a.06.06,0,0,0,.007.033A.084.084,0,0,1,156.935,493.886Zm1.313-1.486h0Zm-1.274.968v.007c-.007.02-.007.033-.013.053v.013A.238.238,0,0,1,156.975,493.369Zm-.02.643v.013c0,.013.007.02.007.033v.007A.146.146,0,0,0,156.955,494.012Zm.033.119c0,.007,0,.013.007.013s.007.02.013.033,0,.007.007.013A.236.236,0,0,1,156.988,494.132Zm-.066-.378h0v.02C156.928,493.773,156.922,493.76,156.922,493.753Z" transform="translate(0 -190.19)" fill="#c1c1c3"/>
      <path id="路径_59" data-name="路径 59" d="M175.918,493.1c.007.007.133.245.391.65.226-.345.537-.8.922-1.353h-2.467A1.331,1.331,0,0,1,175.918,493.1Z" transform="translate(-16.495 -190.17)" fill="#c1c1c3"/>
      <path id="路径_60" data-name="路径 60" d="M156.928,501.946v.04c0,.013,0,.02.007.027A.226.226,0,0,1,156.928,501.946Zm.04.245v.007a.084.084,0,0,1,.007.04c0,.007.007.02.007.027A.238.238,0,0,0,156.968,502.191Zm.04.126c0,.007.007.02.007.027s0,.007.007.013.007.013.007.02Zm-.086-.5Zm.139.623c.007.013.013.02.013.033s.007.007.007.013.007.007.007.013A.235.235,0,0,0,157.061,502.443Zm-.119-.378c0,.013.007.027.007.046s.007.02.007.026C156.948,502.111,156.948,502.092,156.942,502.065Zm.385.743a.178.178,0,0,1-.046-.053C157.293,502.775,157.313,502.788,157.326,502.808Zm-.086-.093a.179.179,0,0,0-.046-.053A.38.38,0,0,1,157.24,502.715Zm.186.179a.428.428,0,0,1-.06-.053A.428.428,0,0,0,157.426,502.894Zm.113.08a.293.293,0,0,1-.073-.053A.5.5,0,0,0,157.539,502.974Zm-.438-1.784c-.007.013-.02.026-.027.04a.007.007,0,0,1-.007.007.023.023,0,0,1-.007.013C157.081,501.236,157.088,501.209,157.1,501.189Zm-.153.431a.156.156,0,0,1,.013-.053A.125.125,0,0,0,156.948,501.621Zm.212.988c-.013-.02-.027-.046-.04-.066A.586.586,0,0,0,157.161,502.609Zm-.232-.862c0-.02.007-.04.007-.06C156.935,501.707,156.928,501.727,156.928,501.747Zm.842,1.346c-.027-.013-.053-.02-.08-.033C157.718,503.073,157.744,503.08,157.771,503.093Zm.119.04-.073-.02C157.844,503.12,157.87,503.126,157.89,503.133Z" transform="translate(0 -198.365)" fill="#c1c1c3"/>
      <path id="路径_61" data-name="路径 61" d="M175.309,511a1.323,1.323,0,0,1-1.161.63h2.481c-.385-.524-.677-.968-.889-1.3C175.462,510.748,175.309,510.993,175.309,511Z" transform="translate(-15.927 -206.84)" fill="#c1c1c3"/>
      <path id="路径_62" data-name="路径 62" d="M158.666,504.7c-.02-.007-.046-.007-.066-.013C158.62,504.7,158.646,504.7,158.666,504.7Zm.126.013c-.02,0-.04-.007-.06-.007A.183.183,0,0,0,158.792,504.717Zm-1.167-1.678a.156.156,0,0,0,.013-.053A.2.2,0,0,1,157.625,503.038Zm.04-.119a.238.238,0,0,1,.027-.06C157.685,502.879,157.671,502.9,157.665,502.919Zm.643,1.665a.5.5,0,0,1-.08-.046A.229.229,0,0,0,158.308,504.584Z" transform="translate(-0.65 -199.914)" fill="#c1c1c3"/>
      <path id="路径_63" data-name="路径 63" d="M159.383,494.423c.007-.007.159-.252.431-.67-.259-.4-.385-.643-.391-.65a1.333,1.333,0,0,0-1.161-.7h-.04a.505.505,0,0,0-.1.007c-.02,0-.033.007-.053.007s-.053.007-.073.013l-.08.02c-.013.007-.033.007-.046.013-.033.013-.066.02-.1.033-.007,0-.013.007-.02.007a1.006,1.006,0,0,0-.119.06,1.262,1.262,0,0,0-.219.146c-.013.007-.02.02-.033.027l-.06.06c-.013.013-.027.033-.04.046l-.046.046c-.013.013-.02.027-.033.04s-.033.04-.046.06-.013.02-.02.027a.139.139,0,0,1-.027.04c-.013.02-.027.046-.04.066a.393.393,0,0,1-.027.053c-.007.02-.02.04-.027.06a.276.276,0,0,1-.027.066.157.157,0,0,0-.013.053c-.007.026-.013.046-.02.073s-.007.033-.013.053-.007.046-.013.073-.007.04-.007.06v.192c0,.02.007.046.007.066s.007.027.007.04v.013c.007.026.007.046.013.073s.007.033.013.053.013.046.02.073l.02.06a.236.236,0,0,0,.027.06.312.312,0,0,0,.033.066c.013.02.02.04.033.06a.139.139,0,0,0,.027.04c.013.02.027.046.04.066s.02.033.033.046a.179.179,0,0,0,.046.053.29.29,0,0,1,.04.046c.013.02.033.033.046.053l.04.04c.02.02.04.033.06.053s.027.02.04.027l.073.053a.145.145,0,0,1,.033.02c.027.013.053.033.08.046l.04.02c.027.013.053.02.08.033l.046.02.073.02a.193.193,0,0,0,.06.013c.02.007.046.007.066.013s.046.007.066.013.04.007.06.007a.271.271,0,0,1,.073.007A1.326,1.326,0,0,0,159.383,494.423Z" transform="translate(0 -190.218)" fill="#c1c1c3"/>
      <path id="路径_64" data-name="路径 64" d="M381.728,443.753a1.33,1.33,0,0,1-1.327,1.327h-.677a16.38,16.38,0,0,0,5.791,3.5,13.186,13.186,0,0,0,4.252.716c2.918,0,6.381-1.008,10.022-4.205-.219,0-.444,0-.663-.007a1.327,1.327,0,0,1,.013-2.653h.013c.166,0,.332,0,.5.007a16.365,16.365,0,0,0-7.144-3.787,12.752,12.752,0,0,0-6.467.259,16.256,16.256,0,0,0-6.155,3.529h.537A1.312,1.312,0,0,1,381.728,443.753Zm12.782-1.592a1.321,1.321,0,0,1,1.532.869c.365.239.736.5,1.108.789a12.01,12.01,0,0,1-7.177,2.819c-.133.007-.259.007-.385.007a8.653,8.653,0,0,1-2.421-.345.8.8,0,0,0-.119-.033c-.2-.053-.391-.113-.59-.179a13.6,13.6,0,0,1-4.139-2.282A11.2,11.2,0,0,1,394.51,442.161Z" transform="translate(-207.797 -140.265)" fill="#c1c1c3"/>
      <path id="路径_65" data-name="路径 65" d="M387.243,489.031a1.315,1.315,0,0,0-1.346-.511,13.946,13.946,0,0,1,1.532.869A1.318,1.318,0,0,0,387.243,489.031Zm-8.809,3.6a.807.807,0,0,0,.119.033,8.651,8.651,0,0,0,2.421.345c.126,0,.252,0,.385-.007A10.325,10.325,0,0,1,378.434,492.632Zm12.085-3.847a1.327,1.327,0,0,0-.013,2.653c.219,0,.444.007.663.007.1-.093.206-.179.305-.272a1.321,1.321,0,0,0,.431-.982v-.02a1.328,1.328,0,0,0-.438-.982c-.027-.02-.047-.046-.073-.066-.126-.113-.252-.226-.378-.332-.166,0-.332,0-.5-.007Zm-19.673.4-.08.08a1.35,1.35,0,0,0-.358.909v.02a1.339,1.339,0,0,0,.352.9c.02.02.139.153.352.345h.677a1.327,1.327,0,0,0,0-2.653h-.537C371.058,488.964,370.919,489.1,370.846,489.183Z" transform="translate(-199.185 -186.655)" fill="#c1c1c3"/>
    </g>
  </g>
</svg>
