<svg xmlns="http://www.w3.org/2000/svg" width="50" height="50" viewBox="0 0 50 50">
  <g id="组_208" data-name="组 208" transform="translate(-145 -215)">
    <rect id="矩形_954" data-name="矩形 954" width="50" height="50" transform="translate(145 215)" fill="rgba(255,255,255,0)"/>
    <path id="icon__film" data-name="icon_ film" d="M127.817,130.083c-1.705-1.159-4.351-1.061-8.058.525a23.852,23.852,0,1,1,10.823-10.8,1.79,1.79,0,0,1-3.206-1.594,20.272,20.272,0,1,0-9.164,9.161l.089-.041c4.741-2.038,8.624-2.189,11.527-.216a1.79,1.79,0,1,1-2.012,2.961ZM109.2,103.829a3.58,3.58,0,1,1,3.58-3.58A3.58,3.58,0,0,1,109.2,103.829Zm8.95,8.95a3.58,3.58,0,1,1,3.58-3.58A3.58,3.58,0,0,1,118.149,112.779Zm-8.95,8.95a3.58,3.58,0,1,1,3.58-3.58A3.58,3.58,0,0,1,109.2,121.729Zm-8.95-8.95a3.58,3.58,0,1,1,3.58-3.58A3.58,3.58,0,0,1,100.249,112.779Z" transform="translate(60.667 130.667)" fill="#c1c1c3"/>
  </g>
</svg>
