<svg xmlns="http://www.w3.org/2000/svg" width="64" height="48.446" viewBox="0 0 64 48.446">
  <path id="icon_chanle" d="M10.206,0a6.6,6.6,0,1,0,4.677,1.953A6.618,6.618,0,0,0,10.206,0Zm0,17.644a6.6,6.6,0,1,0-.191,13.2h.191a6.6,6.6,0,1,0,0-13.2Zm0,17.6a6.6,6.6,0,1,0,6.588,6.6,6.6,6.6,0,0,0-6.588-6.6ZM27.852,11.01H63.1a4.413,4.413,0,0,0,0-8.823H27.852a4.413,4.413,0,1,0,0,8.823ZM63.1,19.833H27.852a4.413,4.413,0,1,0,0,8.823H63.1a4.413,4.413,0,0,0,0-8.823Zm0,17.644H27.852a4.413,4.413,0,1,0,0,8.823H63.1a4.412,4.412,0,1,0,0-8.823Z" transform="translate(-3.511 -0.001)" fill="#ff2152"/>
</svg>
