<svg xmlns="http://www.w3.org/2000/svg" width="138.171" height="138.171" viewBox="0 0 138.171 138.171">
  <g id="icon__Play" data-name="icon_ Play" opacity="0.7">
    <path id="路径_35" data-name="路径 35" d="M390.705,276.5a2.643,2.643,0,0,0-4.145,2.169v60.45a2.636,2.636,0,0,0,1.454,2.352,2.57,2.57,0,0,0,1.192.29,2.653,2.653,0,0,0,1.561-.511l42.315-31.019a2.649,2.649,0,0,0-.055-4.307l-42.315-29.434Z" transform="translate(-334.4 -238.781)" fill="#fff"/>
    <path id="路径_36" data-name="路径 36" d="M69.086,0a69.086,69.086,0,1,0,69.086,69.086A69.086,69.086,0,0,0,69.086,0Zm0,125A55.918,55.918,0,1,1,125,69.086,55.918,55.918,0,0,1,69.086,125Z" fill="#fff"/>
  </g>
</svg>
