<svg xmlns="http://www.w3.org/2000/svg" width="50" height="50" viewBox="0 0 50 50">
  <g id="icon__recommend_" data-name="icon_ recommend " transform="translate(-40 -215)">
    <rect id="矩形_953" data-name="矩形 953" width="50" height="50" transform="translate(40 215)" fill="rgba(255,255,255,0)"/>
    <g id="icon__recommend_2" data-name="icon_ recommend " transform="translate(-51.616 165)">
      <path id="路径_46" data-name="路径 46" d="M131.11,52H102.37a6.737,6.737,0,0,0-6.754,6.755V96.122A2.25,2.25,0,0,0,98.8,98.4l17.936-6.2,17.937,6.2a2.256,2.256,0,0,0,3.188-2.277V58.757A6.753,6.753,0,0,0,131.11,52Zm4.1,43.868-17.632-6.1a2.518,2.518,0,0,0-1.72,0l-17.608,6.1V58.831a4.124,4.124,0,0,1,4.123-4.124h28.715a4.125,4.125,0,0,1,4.122,4.124Zm0,0" transform="translate(0 0)" fill="#c1c1c3"/>
      <path id="路径_47" data-name="路径 47" d="M260.589,203.9l-1.518-.23-4.023-.582-1.8-3.618-.683-1.366c-1.417-2.833-4.427-2.833-5.844,0l-.683,1.366-1.8,3.618-4.022.582-1.518.228c-3.162.456-4.073,3.314-1.8,5.54L238,210.5l2.909,2.808-.679,3.947-.253,1.467c-.556,3.137,1.9,4.933,4.73,3.466l1.366-.708,3.593-1.872,3.592,1.872,1.366.708c2.833,1.468,5.262-.3,4.73-3.466l-.256-1.465-.683-3.947,2.909-2.808,1.088-1.063C264.662,207.218,263.751,204.357,260.589,203.9Zm-.4,3.188-1.088,1.062-3.517,3.39-.607.582.961,5.616.253,1.467a.5.5,0,0,1,.025.177l-.152-.076-1.366-.708-4.327-2.252-.734-.379-5.06,2.631-1.364.708-.152.076c0-.051.025-.124.025-.177l.253-1.467.834-4.781.151-.835-4.149-3.972-1.088-1.062-.1-.1c.051,0,.076-.025.127-.025l1.518-.227,4.857-.708.835-.127,2.532-5.085.683-1.366a.8.8,0,0,1,.076-.152l.076.152.682,1.366,2.176,4.351.38.759,5.663.81,1.518.227a1.093,1.093,0,0,1,.124.025.192.192,0,0,1-.051.1Zm0,0" transform="translate(-132.894 -136.646)" fill="#c1c1c3"/>
    </g>
  </g>
</svg>
