<svg xmlns="http://www.w3.org/2000/svg" width="36.38" height="36.4" viewBox="0 0 36.38 36.4">
  <path id="icon__loading" data-name="icon_ loading" d="M113.49,117.488a1.385,1.385,0,1,1-1.909-.508,1.4,1.4,0,0,1,1.909.508Zm-8.2,2.963h0a1.4,1.4,0,0,1-2.8,0v-.975a1.4,1.4,0,0,1,2.8,0v.975Zm-8.586-1.57h0a1.4,1.4,0,0,1-2.425-1.393l1.035-1.811a1.43,1.43,0,0,1,1.928-.516,1.4,1.4,0,0,1,.5,1.909l-1.035,1.811Zm-6.66-5.625h0a1.4,1.4,0,0,1-1.412-2.425l2.783-1.611a1.4,1.4,0,1,1,1.393,2.425l-2.764,1.611Zm-2.96-8.22h0a1.4,1.4,0,0,1,0-2.791H91.42a1.4,1.4,0,0,1,0,2.791Zm1.551-8.6h0a1.36,1.36,0,0,1-.5-1.9,1.386,1.386,0,0,1,1.909-.516l4.708,2.734a1.389,1.389,0,1,1-1.39,2.406l-4.73-2.725Zm5.645-6.658h0l3.28,5.694a1.4,1.4,0,1,0,2.414-1.4l-3.291-5.683a1.388,1.388,0,0,0-2.4,1.39Zm8.209-2.941h0a1.4,1.4,0,1,1,2.8,0V93.4a1.417,1.417,0,0,1-1.412,1.412,1.4,1.4,0,0,1-1.39-1.412V86.841Zm8.586,1.551h0a1.4,1.4,0,0,1,1.909-.516,1.378,1.378,0,0,1,.516,1.909l-3.288,5.694a1.4,1.4,0,0,1-1.909.516,1.42,1.42,0,0,1-.508-1.92l3.28-5.683Zm6.679,5.634h0l-5.7,3.288a1.4,1.4,0,0,0-.516,1.909,1.431,1.431,0,0,0,1.909.508l5.7-3.288a1.379,1.379,0,0,0,.5-1.9,1.361,1.361,0,0,0-1.89-.519Zm2.93,8.22h0a1.4,1.4,0,0,1,0,2.791h-6.568a1.4,1.4,0,0,1,0-2.791Z" transform="translate(-85.696 -85.44)" fill="#adadad"/>
</svg>
