<svg xmlns="http://www.w3.org/2000/svg" width="41.022" height="41.022" viewBox="0 0 41.022 41.022">
  <path id="icon__full_screen" data-name="icon_ full screen" d="M5.812,3.418h6.153A1.612,1.612,0,0,0,13.673,1.71,1.614,1.614,0,0,0,11.966,0H1.367C1.026,0,.685.341.341.685A1.255,1.255,0,0,0,0,1.71V11.966a1.614,1.614,0,0,0,1.71,1.708,1.612,1.612,0,0,0,1.708-1.708V5.812l9.23,9.23a1.693,1.693,0,1,0,2.395-2.395l-9.23-9.23ZM12.648,25.98,6.494,32.133,3.418,35.21V29.056A1.612,1.612,0,0,0,1.71,27.349,1.614,1.614,0,0,0,0,29.056V39.312a1.616,1.616,0,0,0,1.71,1.71H11.966a1.709,1.709,0,0,0,0-3.418H5.812l3.077-3.077,6.153-6.153a1.693,1.693,0,1,0-2.395-2.395Zm26.664,1.369A1.612,1.612,0,0,0,37.6,29.056V35.21l-3.077-3.077L28.374,25.98a1.693,1.693,0,1,0-2.395,2.395l6.153,6.153L35.21,37.6H29.056a1.709,1.709,0,0,0,0,3.418H39.312a1.616,1.616,0,0,0,1.71-1.71V29.056a1.614,1.614,0,0,0-1.71-1.708ZM39.312,0H29.056a1.614,1.614,0,0,0-1.708,1.71,1.612,1.612,0,0,0,1.708,1.708H35.21L32.133,6.494,25.98,12.648a1.693,1.693,0,1,0,2.395,2.395l6.153-6.153L37.6,5.812v6.153a1.709,1.709,0,0,0,3.418,0V1.71A1.616,1.616,0,0,0,39.312,0Z" fill="#fff"/>
</svg>
