<svg xmlns="http://www.w3.org/2000/svg" width="64" height="64" viewBox="0 0 64 64">
  <g id="icon_Video_recommendation_" data-name="icon_Video recommendation " transform="translate(-29 -825)">
    <rect id="矩形_963" data-name="矩形 963" width="64" height="64" transform="translate(29 825)" fill="rgba(255,255,255,0)"/>
    <g id="灯泡" transform="translate(-31.325 825.232)">
      <path id="路径_68" data-name="路径 68" d="M115.133,146.976a2.083,2.083,0,0,1-1.939-1.395,2.248,2.248,0,0,1,.545-2.4l2.113-2a2.014,2.014,0,0,1,2.936.157,2.251,2.251,0,0,1-.15,3.076l-2.113,2A2.014,2.014,0,0,1,115.133,146.976Zm-45.678,0a2.018,2.018,0,0,1-1.389-.558l-2.113-2a2.256,2.256,0,0,1-.092-3.021,2.016,2.016,0,0,1,2.878-.216l2.109,2a2.252,2.252,0,0,1,.539,2.394,2.087,2.087,0,0,1-1.932,1.4Z" transform="translate(0 -130.951)" fill="#c1c1c3"/>
      <path id="路径_69" data-name="路径 69" d="M187.586,7a2.034,2.034,0,0,1-1.451-.607,2.093,2.093,0,0,1-.6-1.471V2.846a2.049,2.049,0,1,1,4.1,0V4.924A2.062,2.062,0,0,1,187.586,7Zm0,1.409A20.659,20.659,0,0,0,167.1,29.194a19.821,19.821,0,0,0,4.577,12.36,16.8,16.8,0,0,1,3.614,9.426V54.6a8.263,8.263,0,0,0,8.195,8.313h8.2a8.262,8.262,0,0,0,8.195-8.313V50.976a16.776,16.776,0,0,1,3.614-9.422,19.789,19.789,0,0,0,4.581-12.36A20.659,20.659,0,0,0,187.586,8.411Zm4.1,46.39h-8.2a2.078,2.078,0,0,1,0-4.156h8.2a2.078,2.078,0,0,1,0,4.156Zm4.742-18.813a2.018,2.018,0,0,1-1.563-.111,2.066,2.066,0,0,1-1.027-1.2l-1-3.043-3.8,3.853a2.028,2.028,0,0,1-2.9,0l-3.8-3.853-1,3.043a2.042,2.042,0,0,1-2.592,1.313,2.085,2.085,0,0,1-1.295-2.629l2.049-6.235a2.064,2.064,0,0,1,1.473-1.362,2.033,2.033,0,0,1,1.918.549l4.7,4.767,4.7-4.767a2.029,2.029,0,0,1,1.92-.551,2.06,2.06,0,0,1,1.471,1.368l2.049,6.231a2.085,2.085,0,0,1-1.3,2.627Z" transform="translate(-95.292)" fill="#c1c1c3"/>
    </g>
  </g>
</svg>
