<svg xmlns="http://www.w3.org/2000/svg" width="64" height="64" viewBox="0 0 64 64">
  <g id="_icon_Watch_rankings" data-name=" icon_Watch rankings" transform="translate(-28 -712)">
    <rect id="矩形_962" data-name="矩形 962" width="64" height="64" transform="translate(28 712)" fill="rgba(255,255,255,0)"/>
    <path id="排行" d="M25.614,49.382a3.836,3.836,0,0,1-3.836,3.836H15.546a3.836,3.836,0,0,1-3.836-3.836V16.993a3.836,3.836,0,0,1,3.836-3.836h6.233a3.836,3.836,0,0,1,3.836,3.836V49.382Zm19.033,0a3.836,3.836,0,0,1-3.836,3.836H34.579a3.836,3.836,0,0,1-3.836-3.836V3.836A3.836,3.836,0,0,1,34.579,0h6.233a3.836,3.836,0,0,1,3.836,3.836Zm19.063,0a3.836,3.836,0,0,1-3.836,3.836H53.642a3.836,3.836,0,0,1-3.836-3.836V28.528a3.836,3.836,0,0,1,3.836-3.836h6.233a3.836,3.836,0,0,1,3.836,3.836Z" transform="translate(22.29 717)" fill="#c1c1c3"/>
  </g>
</svg>
