<svg xmlns="http://www.w3.org/2000/svg" width="28" height="28" viewBox="0 0 28 28">
  <path id="icon_filter" d="M79.785,91.991a2.8,2.8,0,0,1-1.324-.326l-3.608-2.01a2.71,2.71,0,0,1-1.432-2.41V75.8a.566.566,0,0,0-.22-.434l-8.34-6.684-.09-.108a2.71,2.71,0,0,1,1.974-4.582H89.253a2.762,2.762,0,0,1,2.52,1.63,2.694,2.694,0,0,1-.488,2.952l-.11.108-8.45,6.756a.58.58,0,0,0-.2.434V89.239a2.712,2.712,0,0,1-2.738,2.752ZM66.293,67.051l8.306,6.63a2.739,2.739,0,0,1,1.034,2.136V87.263a.532.532,0,0,0,.272.49l3.608,1.974a.618.618,0,0,0,.562,0,.57.57,0,0,0,.272-.488V75.891a2.725,2.725,0,0,1,1.016-2.138l8.324-6.7a.56.56,0,0,0,.054-.58.546.546,0,0,0-.49-.308h-22.5a.515.515,0,0,0-.49.308.552.552,0,0,0,.036.58Zm24.68,11.374h-5.92a1.087,1.087,0,0,1,0-2.172h5.92a1.066,1.066,0,0,1,1.04,1.086,1.046,1.046,0,0,1-1.04,1.086Zm0,4.174h-5.92a1.088,1.088,0,0,1,0-2.174h5.92a1.068,1.068,0,0,1,1.04,1.088,1.046,1.046,0,0,1-1.04,1.086Zm0,4.174h-5.92a1.088,1.088,0,0,1,0-2.174h5.92a1.068,1.068,0,0,1,1.04,1.086,1.056,1.056,0,0,1-1.04,1.088Z" transform="translate(-64.013 -63.991)" fill="#bfbdbf"/>
</svg>
