<svg xmlns="http://www.w3.org/2000/svg" width="50" height="50" viewBox="0 0 50 50">
  <g id="icon__Thematic" data-name="icon_ Thematic" transform="translate(-658 -215)">
    <rect id="矩形_959" data-name="矩形 959" width="50" height="50" transform="translate(658 215)" fill="rgba(255,255,255,0)"/>
    <g id="icon__Thematic-2" data-name="icon_ Thematic" transform="translate(541.599 151.3)">
      <path id="路径_51" data-name="路径 51" d="M154.356,72.669h-5.17L141.218,64.7l-7.968,7.969h-4.835L120.4,97.341l20.985,15.25,20.985-15.25-8.015-24.672Zm-13.139-3.349,3.344,3.345h-6.693Zm.168,38.725-16.653-12.1,6.361-19.573h20.583l6.361,19.572Z" transform="translate(0 0)" fill="#c1c1c3"/>
      <path id="路径_52" data-name="路径 52" d="M321.663,342.193l-7.761-1.125-3.467-7.028-3.474,7.028-7.761,1.125,5.614,5.47-1.327,7.726,6.941-3.646,6.941,3.646-1.327-7.726Zm-8.047,8-3.188-1.674-3.187,1.674.608-3.548-2.579-2.514,3.564-.517,1.594-3.23,1.594,3.23,3.564.517-2.579,2.514Z" transform="translate(-169.216 -254.904)" fill="#c1c1c3"/>
    </g>
  </g>
</svg>
