<svg xmlns="http://www.w3.org/2000/svg" width="50" height="50" viewBox="0 0 50 50">
  <g id="icon_Anime_" data-name="icon_Anime " transform="translate(-256 -215)">
    <rect id="矩形_955" data-name="矩形 955" width="50" height="50" transform="translate(256 215)" fill="rgba(255,255,255,0)"/>
    <g id="icon_Anime_2" data-name="icon_Anime " transform="translate(162.936 122.038)">
      <path id="路径_48" data-name="路径 48" d="M132.517,115.362c-.641-.815-1.233-1.609-1.863-2.366a45.617,45.617,0,0,0-12.18-10.539,26.768,26.768,0,0,0-8.507-3.25,10.033,10.033,0,0,0-5.024.175,6.579,6.579,0,0,0-4.579,4.971,11.9,11.9,0,0,0,.265,5.691,30.654,30.654,0,0,0,5.426,10.989,47.185,47.185,0,0,0,11.778,11.175,28.232,28.232,0,0,0,9.8,4.208,10.946,10.946,0,0,0,5.235-.011,6.777,6.777,0,0,0,4.9-5.781,14.952,14.952,0,0,0-.73-6.188c-.3-.985-.693-1.937-1.059-2.9a.4.4,0,0,1,.042-.423c.244-.349.471-.7.752-1.117.476,1.027.958,2,1.382,2.991a26.966,26.966,0,0,1,1.937,6.437,11.618,11.618,0,0,1-.185,5.362,7.742,7.742,0,0,1-6.5,5.632,12.538,12.538,0,0,1-4.4-.1,32.121,32.121,0,0,1-11.921-4.923,54.451,54.451,0,0,1-14.838-14.409,34.92,34.92,0,0,1-5.346-11.254,17.185,17.185,0,0,1-.625-4.3,8.626,8.626,0,0,1,1.948-6.008,8.017,8.017,0,0,1,5.511-2.8,17.75,17.75,0,0,1,6.919.9,38.706,38.706,0,0,1,12.5,6.808,57.329,57.329,0,0,1,7.406,7.019c.789.884,1.514,1.826,2.276,2.737a.346.346,0,0,1,.048.439C132.771,114.779,132.655,115.055,132.517,115.362Z" transform="translate(-0.211 -0.563)" fill="#c1c1c3"/>
      <path id="路径_49" data-name="路径 49" d="M535.8,99.521c1.09-.508,2.112-1.027,3.16-1.477a26.924,26.924,0,0,1,5.775-1.784,12.235,12.235,0,0,1,5.95.138,7.66,7.66,0,0,1,5.3,5.458,11.706,11.706,0,0,1,.159,5.246,30.817,30.817,0,0,1-3.732,10.095,48,48,0,0,1-7.014,9.322,63.326,63.326,0,0,1-6.516,5.976.434.434,0,0,1-.545.069c-.842-.434-1.7-.842-2.546-1.265-.064-.032-.116-.074-.2-.122.646-.482,1.276-.937,1.89-1.419a47.381,47.381,0,0,0,11.032-12.075,26.867,26.867,0,0,0,3.663-8.872,11.083,11.083,0,0,0-.032-5.537,6.547,6.547,0,0,0-3.8-4.23,8.554,8.554,0,0,0-3.97-.582,20.861,20.861,0,0,0-6.982,1.847.457.457,0,0,1-.5-.042c-.339-.243-.672-.461-1.1-.746Z" transform="translate(-416.269 0)" fill="#c1c1c3"/>
      <path id="路径_50" data-name="路径 50" d="M127.351,223.345c-.656.508-1.276.985-1.9,1.461-1.1.847-2.207,1.7-3.319,2.541a.419.419,0,0,0-.185.535c.614,2.012,1.2,4.028,1.795,6.045.026.074.037.154.074.3-.482-.333-.916-.625-1.345-.921q-2.072-1.429-4.15-2.869a.342.342,0,0,0-.461.005c-1.667,1.159-3.346,2.308-5.018,3.462-.138.1-.275.185-.476.323.048-.191.074-.318.111-.434.588-1.98,1.175-3.97,1.773-5.955a.351.351,0,0,0-.148-.461c-1.683-1.281-3.356-2.573-5.039-3.859a.489.489,0,0,1-.175-.243c.45,0,.9.005,1.35,0,1.773-.037,3.552-.085,5.32-.116.217-.005.249-.132.3-.27q1.048-2.97,2.1-5.945c.032-.085.064-.175.122-.349.064.159.106.259.138.355.7,1.969,1.4,3.938,2.086,5.918a.368.368,0,0,0,.408.3c2.154.042,4.314.1,6.469.148A.552.552,0,0,1,127.351,223.345Zm-10.757,23.292c-.577.286-1.133.561-1.7.831a29.385,29.385,0,0,1-7.157,2.409,12.855,12.855,0,0,1-5.373.037,7.866,7.866,0,0,1-6.141-6.585,15.466,15.466,0,0,1,.6-6.813,33.223,33.223,0,0,1,2.684-6.6c.042-.079.085-.154.148-.265.275.413.54.794.773,1.191a.474.474,0,0,1-.037.333,25.932,25.932,0,0,0-1.53,4.658,11.873,11.873,0,0,0-.138,5.034,6.8,6.8,0,0,0,5.934,5.389,13.454,13.454,0,0,0,5.352-.524c1.117-.318,2.207-.736,3.3-1.133a.5.5,0,0,1,.535.069C114.737,245.329,115.653,245.965,116.595,246.637ZM103.88,224.992c-.159-.36-.318-.683-.434-1.016-.032-.079.064-.228.132-.318,1.239-1.45,2.44-2.938,3.748-4.33a52.692,52.692,0,0,1,7.676-6.76c.365-.259.667-.386,1.064-.106a3.487,3.487,0,0,0,.646.3,48.955,48.955,0,0,0-12.832,12.228Z" transform="translate(0 -110.182)" fill="#c1c1c3"/>
    </g>
  </g>
</svg>
